<?xml version="1.0" standalone="no"?>
<!DOCTYPE svg PUBLIC "-//W3C//DTD SVG 20010904//EN"
 "http://www.w3.org/TR/2001/REC-SVG-20010904/DTD/svg10.dtd">
<svg version="1.0" xmlns="http://www.w3.org/2000/svg"
 width="1024.000000pt" height="1024.000000pt" viewBox="0 0 1024.000000 1024.000000"
 preserveAspectRatio="xMidYMid meet">

<g transform="translate(0.000000,1024.000000) scale(0.100000,-0.100000)"
fill="#000000" stroke="none">
<path d="M353 10233 c197 -2 517 -2 710 0 194 1 33 2 -358 2 -390 0 -549 -1
-352 -2z"/>
<path d="M5483 10233 c873 -2 2301 -2 3175 0 873 1 158 2 -1588 2 -1746 0
-2461 -1 -1587 -2z"/>
<path d="M5403 7600 c-1 -74 2 -121 6 -105 3 17 3 77 0 135 l-5 105 -1 -135z"/>
<path d="M3069 7581 c-14 -15 -46 -19 -240 -26 -291 -11 -302 -11 -307 3 -4
14 -76 16 -102 2 -17 -9 -40 -58 -40 -85 0 -18 58 -75 76 -75 12 0 9 6 -10 21
-32 25 -36 74 -7 84 11 3 24 18 30 33 10 24 11 24 7 3 -4 -18 -2 -21 7 -12 12
12 67 15 67 3 0 -9 138 -8 255 1 55 4 66 3 35 -3 -44 -7 -43 -8 17 -6 35 0 63
5 63 9 0 4 17 7 38 7 50 -1 118 14 139 31 11 9 14 10 9 2 -4 -7 -3 -13 3 -13
5 0 11 4 13 9 2 5 18 6 35 4 18 -3 31 -9 28 -13 -3 -4 2 -10 10 -14 25 -9 17
12 -14 33 -35 25 -90 26 -112 2z m-619 -41 c0 -5 -4 -10 -10 -10 -5 0 -10 5
-10 10 0 6 5 10 10 10 6 0 10 -4 10 -10z"/>
<path d="M5413 7380 c0 -36 2 -50 4 -32 2 17 2 47 0 65 -2 17 -4 3 -4 -33z"/>
<path d="M5418 7233 c5 -76 10 -83 11 -15 0 34 -2 62 -7 62 -4 0 -6 -21 -4
-47z"/>
<path d="M5426 7125 c-3 -9 -5 -44 -4 -78 l1 -62 7 75 c6 81 6 90 -4 65z"/>
<path d="M5432 6875 c0 -60 4 -121 8 -135 10 -33 11 102 0 185 -6 53 -7 47 -8
-50z"/>
<path d="M5442 6675 c0 -16 2 -22 5 -12 2 9 2 23 0 30 -3 6 -5 -1 -5 -18z"/>
<path d="M5458 6405 c2 -132 6 -242 8 -244 7 -8 2 313 -6 399 -4 50 -5 -13 -2
-155z"/>
<path d="M5473 6030 c0 -30 2 -43 4 -27 2 15 2 39 0 55 -2 15 -4 2 -4 -28z"/>
<path d="M5481 5749 c1 -52 5 -107 9 -124 4 -16 5 24 3 90 -3 66 -7 122 -9
124 -2 2 -3 -38 -3 -90z"/>
<path d="M5492 5500 c0 -14 2 -19 5 -12 2 6 2 18 0 25 -3 6 -5 1 -5 -13z"/>
<path d="M5500 5300 c0 -79 3 -141 6 -137 7 7 6 269 -1 276 -3 2 -5 -60 -5
-139z"/>
<path d="M5513 5070 c0 -41 2 -58 4 -37 2 20 2 54 0 75 -2 20 -4 3 -4 -38z"/>
<path d="M5521 4854 c1 -60 5 -149 9 -199 5 -58 6 -20 2 105 -2 107 -6 197 -8
199 -2 2 -4 -45 -3 -105z"/>
<path d="M5531 4544 c0 -11 3 -14 6 -6 3 7 2 16 -1 19 -3 4 -6 -2 -5 -13z"/>
<path d="M5540 4380 c0 -11 2 -20 4 -20 2 0 6 9 9 20 3 11 1 20 -4 20 -5 0 -9
-9 -9 -20z"/>
<path d="M5542 4270 c0 -30 3 -77 8 -105 l7 -50 1 55 c0 30 -3 78 -8 105 l-7
50 -1 -55z"/>
<path d="M5563 3945 c0 -33 2 -45 4 -27 2 18 2 45 0 60 -2 15 -4 0 -4 -33z"/>
<path d="M1652 3044 c-12 -8 -22 -20 -22 -25 0 -5 10 -1 22 10 11 11 26 18 31
14 6 -3 7 -1 3 5 -9 15 -7 15 -34 -4z"/>
<path d="M1589 2993 c-13 -16 -12 -17 4 -4 9 7 17 15 17 17 0 8 -8 3 -21 -13z"/>
<path d="M3700 2866 c0 -2 8 -10 18 -17 15 -13 16 -12 3 4 -13 16 -21 21 -21
13z"/>
<path d="M1425 2836 c-30 -34 -35 -48 -10 -24 16 15 27 29 24 32 -2 2 -8 -1
-14 -8z"/>
<path d="M3750 2831 c0 -5 7 -12 16 -15 14 -5 15 -4 4 9 -14 17 -20 19 -20 6z"/>
<path d="M4258 2803 c6 -2 18 -2 25 0 6 3 1 5 -13 5 -14 0 -19 -2 -12 -5z"/>
<path d="M5613 2765 c0 -22 2 -30 4 -17 2 12 2 30 0 40 -3 9 -5 -1 -4 -23z"/>
<path d="M3965 2770 c-13 -6 -15 -9 -5 -9 8 0 22 4 30 9 18 12 2 12 -25 0z"/>
<path d="M1345 2749 c-4 -6 -5 -12 -2 -15 2 -3 7 2 10 11 7 17 1 20 -8 4z"/>
<path d="M2728 2743 c7 -3 16 -2 19 1 4 3 -2 6 -13 5 -11 0 -14 -3 -6 -6z"/>
<path d="M4487 2729 c7 -7 15 -10 18 -7 3 3 -2 9 -12 12 -14 6 -15 5 -6 -5z"/>
<path d="M1310 2705 c-7 -9 -11 -17 -8 -20 2 -2 12 4 21 15 9 11 13 20 8 20
-5 0 -14 -7 -21 -15z"/>
<path d="M4570 2676 c0 -2 8 -10 18 -17 15 -13 16 -12 3 4 -13 16 -21 21 -21
13z"/>
<path d="M5623 2515 c-1 -94 -3 -175 -4 -180 -3 -10 0 -79 22 -545 5 -118 11
-262 14 -320 2 -58 6 -136 9 -175 3 -38 8 -140 11 -225 3 -85 8 -185 11 -222
6 -67 6 -68 -26 -98 -34 -32 -38 -32 -205 -35 -33 -1 -105 -4 -160 -8 -141 -9
-273 -16 -560 -27 -137 -5 -290 -12 -340 -15 -97 -5 -610 -27 -990 -40 -152
-6 -720 -40 -830 -50 -33 -3 -175 -8 -315 -10 -417 -8 -1136 -35 -1478 -56
-167 -11 -192 -14 -190 -28 4 -22 71 -31 193 -25 55 2 159 6 230 9 72 2 225
11 340 19 116 8 297 15 404 16 107 0 198 3 202 6 10 6 321 21 829 39 228 8
503 20 610 25 107 5 245 12 305 15 186 8 298 15 340 20 22 2 144 7 270 10 127
3 282 8 345 11 198 10 250 12 435 19 99 4 182 8 185 10 3 2 78 5 165 6 158 2
215 13 215 40 0 6 6 9 14 6 9 -4 22 14 40 52 21 46 25 67 21 111 -5 61 -11
178 -20 465 -4 105 -8 217 -10 250 -2 33 -7 148 -11 255 -4 107 -8 213 -10
235 -2 22 -6 90 -9 150 -7 137 -13 177 -25 170 -6 -3 -7 1 -4 10 4 9 2 26 -5
38 -6 12 -12 72 -14 132 -2 75 -3 55 -4 -60z m37 -156 c0 -5 -4 -9 -10 -9 -5
0 -10 7 -10 16 0 8 5 12 10 9 6 -3 10 -10 10 -16z"/>
<path d="M4645 2590 c10 -11 20 -20 22 -20 2 0 -2 9 -9 20 -7 11 -17 20 -22
20 -5 0 -1 -9 9 -20z"/>
<path d="M5098 2573 c7 -3 16 -2 19 1 4 3 -2 6 -13 5 -11 0 -14 -3 -6 -6z"/>
<path d="M1181 2524 c0 -11 3 -14 6 -6 3 7 2 16 -1 19 -3 4 -6 -2 -5 -13z"/>
<path d="M4690 2535 c0 -5 5 -17 10 -25 5 -8 10 -10 10 -5 0 6 -5 17 -10 25
-5 8 -10 11 -10 5z"/>
<path d="M4865 2530 c-16 -7 -17 -9 -3 -9 9 -1 20 4 23 9 7 11 7 11 -20 0z"/>
<path d="M5338 2533 c7 -3 16 -2 19 1 4 3 -2 6 -13 5 -11 0 -14 -3 -6 -6z"/>
<path d="M4818 2503 c7 -3 16 -2 19 1 4 3 -2 6 -13 5 -11 0 -14 -3 -6 -6z"/>
<path d="M5480 2460 c0 -5 5 -10 11 -10 5 0 7 5 4 10 -3 6 -8 10 -11 10 -2 0
-4 -4 -4 -10z"/>
<path d="M1110 2419 c0 -5 5 -7 10 -4 6 3 10 8 10 11 0 2 -4 4 -10 4 -5 0 -10
-5 -10 -11z"/>
<path d="M1076 2355 c-9 -26 -7 -32 5 -12 6 10 9 21 6 23 -2 3 -7 -2 -11 -11z"/>
<path d="M1026 2253 c-6 -14 -5 -15 5 -6 7 7 10 15 7 18 -3 3 -9 -2 -12 -12z"/>
<path d="M728 2253 c6 -2 18 -2 25 0 6 3 1 5 -13 5 -14 0 -19 -2 -12 -5z"/>
<path d="M915 2180 c10 -11 20 -18 23 -15 7 6 -18 35 -31 35 -5 0 -2 -9 8 -20z"/>
<path d="M8571 1566 c2 -2 15 -9 29 -15 24 -11 24 -11 6 3 -16 13 -49 24 -35
12z"/>
<path d="M9703 1515 c-3 -9 -3 -18 -1 -21 3 -3 8 4 11 16 6 23 -1 27 -10 5z"/>
<path d="M9070 1471 c0 -17 4 -32 8 -35 4 -2 6 11 4 30 -5 42 -12 45 -12 5z"/>
<path d="M9882 1480 c0 -14 2 -19 5 -12 2 6 2 18 0 25 -3 6 -5 1 -5 -13z"/>
<path d="M8462 1470 c0 -14 2 -19 5 -12 2 6 2 18 0 25 -3 6 -5 1 -5 -13z"/>
<path d="M9215 1390 c-3 -5 -1 -10 4 -10 6 0 11 5 11 10 0 6 -2 10 -4 10 -3 0
-8 -4 -11 -10z"/>
<path d="M8508 1383 c7 -3 16 -2 19 1 4 3 -2 6 -13 5 -11 0 -14 -3 -6 -6z"/>
<path d="M8605 1024 c15 -14 30 -23 33 -20 6 6 -38 45 -52 46 -5 0 3 -11 19
-26z"/>
<path d="M9240 1010 c0 -5 5 -10 11 -10 5 0 7 5 4 10 -3 6 -8 10 -11 10 -2 0
-4 -4 -4 -10z"/>
<path d="M9700 999 c0 -5 5 -7 10 -4 6 3 10 8 10 11 0 2 -4 4 -10 4 -5 0 -10
-5 -10 -11z"/>
<path d="M9865 1000 c3 -5 8 -10 11 -10 2 0 4 5 4 10 0 6 -5 10 -11 10 -5 0
-7 -4 -4 -10z"/>
<path d="M9070 957 c0 -20 5 -39 11 -42 7 -5 8 5 3 32 -9 51 -14 54 -14 10z"/>
<path d="M8652 960 c0 -14 2 -19 5 -12 2 6 2 18 0 25 -3 6 -5 1 -5 -13z"/>
<path d="M9855 950 c3 -5 8 -10 11 -10 2 0 4 5 4 10 0 6 -5 10 -11 10 -5 0 -7
-4 -4 -10z"/>
<path d="M8625 890 c-3 -5 -1 -10 4 -10 6 0 11 5 11 10 0 6 -2 10 -4 10 -3 0
-8 -4 -11 -10z"/>
<path d="M9100 891 c0 -6 4 -13 10 -16 6 -3 7 1 4 9 -7 18 -14 21 -14 7z"/>
<path d="M9720 883 c0 -1 8 -7 18 -12 13 -7 19 -6 19 2 0 7 -9 13 -19 13 -10
0 -18 -1 -18 -3z"/>
<path d="M8580 870 c-23 -7 -23 -8 -3 -9 12 -1 25 4 28 9 3 6 5 10 3 9 -2 -1
-14 -5 -28 -9z"/>
<path d="M9210 870 c-8 -5 -10 -10 -5 -10 6 0 17 5 25 10 8 5 11 10 5 10 -5 0
-17 -5 -25 -10z"/>
<path d="M8518 863 c7 -3 16 -2 19 1 4 3 -2 6 -13 5 -11 0 -14 -3 -6 -6z"/>
<path d="M9138 863 c6 -2 18 -2 25 0 6 3 1 5 -13 5 -14 0 -19 -2 -12 -5z"/>
<path d="M9160 536 c0 -2 7 -7 16 -10 8 -3 12 -2 9 4 -6 10 -25 14 -25 6z"/>
<path d="M9788 523 c6 -2 18 -2 25 0 6 3 1 5 -13 5 -14 0 -19 -2 -12 -5z"/>
<path d="M9725 510 c-3 -5 -1 -10 4 -10 6 0 11 5 11 10 0 6 -2 10 -4 10 -3 0
-8 -4 -11 -10z"/>
<path d="M9701 474 c0 -11 3 -14 6 -6 3 7 2 16 -1 19 -3 4 -6 -2 -5 -13z"/>
<path d="M9865 480 c3 -5 11 -10 16 -10 6 0 7 5 4 10 -3 6 -11 10 -16 10 -6 0
-7 -4 -4 -10z"/>
<path d="M8462 430 c0 -19 2 -27 5 -17 2 9 2 25 0 35 -3 9 -5 1 -5 -18z"/>
<path d="M9851 444 c0 -11 3 -14 6 -6 3 7 2 16 -1 19 -3 4 -6 -2 -5 -13z"/>
<path d="M9070 434 c0 -8 5 -12 10 -9 6 3 10 10 10 16 0 5 -4 9 -10 9 -5 0
-10 -7 -10 -16z"/>
<path d="M8651 424 c0 -11 3 -14 6 -6 3 7 2 16 -1 19 -3 4 -6 -2 -5 -13z"/>
<path d="M9877 411 c-4 -17 -3 -21 5 -13 5 5 8 16 6 23 -3 8 -7 3 -11 -10z"/>
<path d="M8477 369 c7 -7 15 -10 18 -7 3 3 -2 9 -12 12 -14 6 -15 5 -6 -5z"/>
<path d="M9138 363 c7 -3 16 -2 19 1 4 3 -2 6 -13 5 -11 0 -14 -3 -6 -6z"/>
<path d="M9168 333 c6 -2 18 -2 25 0 6 3 1 5 -13 5 -14 0 -19 -2 -12 -5z"/>
<path d="M9788 333 c6 -2 18 -2 25 0 6 3 1 5 -13 5 -14 0 -19 -2 -12 -5z"/>
<path d="M2557 3 c1410 -2 3716 -2 5125 0 1410 1 257 2 -2562 2 -2819 0 -3972
-1 -2563 -2z"/>
</g>
</svg>
